<svg width="17" height="17" viewBox="0 0 17 17" fill="none" xmlns="http://www.w3.org/2000/svg">
<path d="M13.9181 10.8733L12.6972 9.64566V6.62059C12.7135 5.49726 12.3228 4.40599 11.5972 3.54827C10.8716 2.69055 9.86021 2.12431 8.74974 1.95411C8.10526 1.86924 7.45008 1.92279 6.82794 2.11118C6.20579 2.29958 5.63098 2.61849 5.14185 3.04664C4.65272 3.47479 4.26052 4.00233 3.99143 4.59406C3.72233 5.18579 3.58253 5.82811 3.58134 6.47815V9.64566L2.36046 10.8733C2.20711 11.0292 2.10312 11.2269 2.06148 11.4416C2.01985 11.6563 2.04242 11.8785 2.12638 12.0804C2.21033 12.2823 2.35195 12.455 2.53352 12.5769C2.7151 12.6988 2.92857 12.7645 3.14725 12.7657H5.42623V12.9963C5.45791 13.6849 5.76126 14.3328 6.26981 14.7981C6.77835 15.2634 7.45062 15.5082 8.1393 15.4788C8.82797 15.5082 9.50024 15.2634 10.0088 14.7981C10.5173 14.3328 10.8207 13.6849 10.8524 12.9963V12.7657H13.1313C13.35 12.7645 13.5635 12.6988 13.7451 12.5769C13.9266 12.455 14.0683 12.2823 14.1522 12.0804C14.2362 11.8785 14.2587 11.6563 14.2171 11.4416C14.1755 11.2269 14.0715 11.0292 13.9181 10.8733ZM9.49583 12.9963C9.45821 13.3225 9.29618 13.6217 9.04347 13.8314C8.79077 14.0412 8.46689 14.1453 8.1393 14.1222C7.8117 14.1453 7.48782 14.0412 7.23512 13.8314C6.98241 13.6217 6.82038 13.3225 6.78276 12.9963V12.7657H9.49583V12.9963ZM3.73734 11.4091L4.5377 10.6088C4.66465 10.4826 4.76537 10.3325 4.83405 10.1672C4.90273 10.0019 4.93802 9.82466 4.93788 9.64566V6.47815C4.93825 6.02059 5.03648 5.56841 5.226 5.15194C5.41552 4.73548 5.69192 4.36437 6.03667 4.06352C6.37676 3.75537 6.77976 3.52481 7.21776 3.38779C7.65576 3.25076 8.11831 3.21056 8.57339 3.26995C9.35779 3.39731 10.0698 3.80375 10.5783 4.41444C11.0868 5.02513 11.3575 5.79896 11.3407 6.59346V9.64566C11.3397 9.82418 11.3739 10.0012 11.4414 10.1664C11.5089 10.3317 11.6084 10.482 11.7341 10.6088L12.5412 11.4091H3.73734Z" fill="#EEEEEE"/>
</svg>
