<svg width="17" height="17" viewBox="0 0 17 17" fill="none" xmlns="http://www.w3.org/2000/svg">
<path d="M13.8502 6.90478L8.62072 1.56004C8.55766 1.49646 8.48265 1.446 8.39999 1.41157C8.31734 1.37713 8.22869 1.35941 8.13915 1.35941C8.04961 1.35941 7.96095 1.37713 7.8783 1.41157C7.79565 1.446 7.72063 1.49646 7.65758 1.56004L2.42814 6.91156C2.3016 7.03912 2.20166 7.19055 2.13413 7.35705C2.0666 7.52355 2.03282 7.70181 2.03475 7.88148V13.5654C2.03422 13.9126 2.16685 14.2468 2.40533 14.4991C2.64381 14.7515 2.96998 14.9028 3.31667 14.9219H12.9616C13.3083 14.9028 13.6345 14.7515 13.873 14.4991C14.1114 14.2468 14.2441 13.9126 14.2435 13.5654V7.88148C14.2441 7.51721 14.103 7.16698 13.8502 6.90478ZM6.78261 13.5654V9.49576H9.49568V13.5654H6.78261ZM12.887 13.5654H10.8522V8.81749C10.8522 8.6376 10.7808 8.46508 10.6536 8.33788C10.5264 8.21068 10.3538 8.13922 10.1739 8.13922H6.10435C5.92446 8.13922 5.75194 8.21068 5.62474 8.33788C5.49754 8.46508 5.42608 8.6376 5.42608 8.81749V13.5654H3.39128V7.85435L8.13915 3.00474L12.887 7.88148V13.5654Z" fill="#EEEEEE"/>
</svg>
