<svg width="17" height="17" viewBox="0 0 17 17" fill="none" xmlns="http://www.w3.org/2000/svg">
<path d="M4.74838 4.07C4.92828 4.07 5.10082 3.99853 5.22803 3.87132C5.35525 3.74411 5.42671 3.57157 5.42671 3.39167C5.42671 3.21176 5.35525 3.03922 5.22803 2.91201C5.10082 2.7848 4.92828 2.71333 4.74838 2.71333H3.39171C3.21181 2.71333 3.03927 2.7848 2.91206 2.91201C2.78485 3.03922 2.71338 3.21176 2.71338 3.39167V12.8883C2.71338 13.0682 2.78485 13.2408 2.91206 13.368C3.03927 13.4952 3.21181 13.5667 3.39171 13.5667H4.74838C4.92828 13.5667 5.10082 13.4952 5.22803 13.368C5.35525 13.2408 5.42671 13.0682 5.42671 12.8883C5.42671 12.7084 5.35525 12.5359 5.22803 12.4087C5.10082 12.2815 4.92828 12.21 4.74838 12.21H4.07005V4.07H4.74838Z" fill="#EEEEEE"/>
<path d="M14.123 7.74658L12.2101 5.03325C12.1064 4.88701 11.9489 4.78779 11.7723 4.75728C11.5956 4.72678 11.414 4.76746 11.2672 4.87045C11.1939 4.92186 11.1314 4.98729 11.0835 5.06297C11.0355 5.13864 11.003 5.22306 10.9879 5.31136C10.9728 5.39965 10.9753 5.49007 10.9953 5.57739C11.0153 5.66471 11.0524 5.74721 11.1044 5.82012L12.2712 7.46168H12.2101H6.78344C6.60353 7.46168 6.43099 7.53315 6.30378 7.66036C6.17657 7.78758 6.1051 7.96011 6.1051 8.14002C6.1051 8.31992 6.17657 8.49246 6.30378 8.61967C6.43099 8.74688 6.60353 8.81835 6.78344 8.81835H12.2101L10.9891 10.4464C10.9357 10.5176 10.8968 10.5987 10.8747 10.685C10.8526 10.7713 10.8477 10.8611 10.8603 10.9493C10.8729 11.0375 10.9027 11.1223 10.9481 11.199C10.9935 11.2756 11.0535 11.3426 11.1248 11.396C11.2422 11.4841 11.385 11.5317 11.5318 11.5317C11.6371 11.5317 11.7409 11.5072 11.8351 11.4601C11.9293 11.413 12.0113 11.3446 12.0744 11.2604L14.1094 8.54702C14.1963 8.43229 14.2444 8.2929 14.2469 8.14902C14.2493 8.00513 14.2059 7.86419 14.123 7.74658Z" fill="#EEEEEE"/>
</svg>
