<svg width="17" height="17" viewBox="0 0 17 17" fill="none" xmlns="http://www.w3.org/2000/svg">
<path d="M13.5992 7.46091H2.67914C2.32328 7.46091 2.03479 7.74939 2.03479 8.10526V8.17309C2.03479 8.52895 2.32328 8.81744 2.67914 8.81744H13.5992C13.9551 8.81744 14.2436 8.52895 14.2436 8.17309V8.10526C14.2436 7.74939 13.9551 7.46091 13.5992 7.46091Z" fill="#EEEEEE"/>
<path d="M13.5992 10.8522H2.67914C2.32328 10.8522 2.03479 11.1407 2.03479 11.4966V11.5644C2.03479 11.9203 2.32328 12.2088 2.67914 12.2088H13.5992C13.9551 12.2088 14.2436 11.9203 14.2436 11.5644V11.4966C14.2436 11.1407 13.9551 10.8522 13.5992 10.8522Z" fill="#EEEEEE"/>
<path d="M13.5992 4.06961H2.67914C2.32328 4.06961 2.03479 4.3581 2.03479 4.71396V4.78179C2.03479 5.13766 2.32328 5.42614 2.67914 5.42614H13.5992C13.9551 5.42614 14.2436 5.13766 14.2436 4.78179V4.71396C14.2436 4.3581 13.9551 4.06961 13.5992 4.06961Z" fill="#EEEEEE"/>
</svg>
