<svg width="24" height="24" viewBox="0 0 24 24" fill="none" xmlns="http://www.w3.org/2000/svg">
<path d="M12 1.99997C10.0222 1.99997 8.08879 2.58646 6.4443 3.68527C4.79981 4.78409 3.51809 6.34587 2.76121 8.17313C2.00433 10.0004 1.8063 12.0111 2.19215 13.9509C2.578 15.8907 3.53041 17.6725 4.92894 19.071C6.32746 20.4696 8.10929 21.422 10.0491 21.8078C11.9889 22.1937 13.9996 21.9956 15.8268 21.2388C17.6541 20.4819 19.2159 19.2002 20.3147 17.5557C21.4135 15.9112 22 13.9778 22 12C22 10.6868 21.7413 9.38639 21.2388 8.17313C20.7363 6.95988 19.9997 5.85749 19.0711 4.9289C18.1425 4.00032 17.0401 3.26372 15.8268 2.76117C14.6136 2.25863 13.3132 1.99997 12 1.99997ZM12 20C10.4178 20 8.87104 19.5308 7.55544 18.6517C6.23985 17.7727 5.21447 16.5232 4.60897 15.0614C4.00347 13.5996 3.84504 11.9911 4.15372 10.4392C4.4624 8.8874 5.22433 7.46194 6.34315 6.34312C7.46197 5.2243 8.88743 4.46237 10.4393 4.15369C11.9911 3.84501 13.5997 4.00343 15.0615 4.60893C16.5233 5.21443 17.7727 6.23981 18.6518 7.55541C19.5308 8.871 20 10.4177 20 12C20 14.1217 19.1572 16.1565 17.6569 17.6568C16.1566 19.1571 14.1217 20 12 20Z" fill="#EEEEEE"/>
<path d="M12.34 7.44999C12.095 7.22419 11.789 7.07537 11.4601 7.02203C11.1312 6.96869 10.7938 7.01319 10.49 7.14999C10.195 7.2693 9.94237 7.47384 9.76425 7.73746C9.58612 8.00109 9.49063 8.31183 9.48999 8.62999V15.37C9.49063 15.6882 9.58612 15.9989 9.76425 16.2625C9.94237 16.5261 10.195 16.7307 10.49 16.85C10.7068 16.9483 10.942 16.9994 11.18 17C11.6089 16.9981 12.022 16.8378 12.34 16.55L16 13.18C16.1637 13.0301 16.2944 12.8478 16.3838 12.6446C16.4733 12.4415 16.5194 12.2219 16.5194 12C16.5194 11.778 16.4733 11.5585 16.3838 11.3554C16.2944 11.1522 16.1637 10.9699 16 10.82L12.34 7.44999ZM11.5 14.6V9.39999L14.31 12L11.5 14.6Z" fill="#EEEEEE"/>
</svg>
