<svg width="24" height="24" viewBox="0 0 24 24" fill="none" xmlns="http://www.w3.org/2000/svg">
<path d="M16.45 6.20001C16.0943 6.03198 15.6985 5.96726 15.3077 6.01323C14.917 6.05919 14.547 6.214 14.24 6.46001L9.14 10.67L9 10.82V7.00001C9 6.73479 8.89464 6.48044 8.70711 6.2929C8.51957 6.10537 8.26522 6.00001 8 6.00001C7.73478 6.00001 7.48043 6.10537 7.29289 6.2929C7.10536 6.48044 7 6.73479 7 7.00001V17C7 17.2652 7.10536 17.5196 7.29289 17.7071C7.48043 17.8947 7.73478 18 8 18C8.26522 18 8.51957 17.8947 8.70711 17.7071C8.89464 17.5196 9 17.2652 9 17V13.18L9.14 13.33L14.24 17.54C14.6076 17.8381 15.0667 18.0006 15.54 18C15.854 17.9982 16.1641 17.93 16.45 17.8C16.7592 17.6637 17.0226 17.4413 17.2088 17.1594C17.395 16.8774 17.4961 16.5479 17.5 16.21V7.79001C17.4961 7.45215 17.395 7.12257 17.2088 6.84063C17.0226 6.55868 16.7592 6.33629 16.45 6.20001ZM15.5 16L10.68 12L15.5 8.09001V16Z" fill="#EEEEEE"/>
</svg>
