<svg width="17" height="17" viewBox="0 0 17 17" fill="none" xmlns="http://www.w3.org/2000/svg">
<path d="M8.13934 7.73934C8.67593 7.73934 9.20047 7.58022 9.64664 7.2821C10.0928 6.98399 10.4405 6.56026 10.6459 6.06452C10.8512 5.56877 10.905 5.02326 10.8003 4.49698C10.6956 3.97069 10.4372 3.48727 10.0578 3.10784C9.67834 2.72841 9.19491 2.47002 8.66863 2.36533C8.14235 2.26065 7.59684 2.31438 7.10109 2.51972C6.60534 2.72507 6.18162 3.07281 5.8835 3.51897C5.58539 3.96513 5.42627 4.48968 5.42627 5.02627C5.42627 5.74582 5.71211 6.4359 6.22091 6.9447C6.72971 7.4535 7.41979 7.73934 8.13934 7.73934ZM8.13934 3.66974C8.40763 3.66974 8.66991 3.7493 8.89299 3.89835C9.11607 4.04741 9.28994 4.25927 9.39261 4.50715C9.49528 4.75502 9.52215 5.02777 9.4698 5.29092C9.41746 5.55406 9.28826 5.79577 9.09855 5.98548C8.90884 6.1752 8.66712 6.3044 8.40398 6.35674C8.14084 6.40908 7.86809 6.38222 7.62021 6.27954C7.37234 6.17687 7.16048 6.003 7.01142 5.77992C6.86236 5.55684 6.7828 5.29457 6.7828 5.02627C6.7828 4.66649 6.92572 4.32146 7.18012 4.06706C7.43452 3.81266 7.77956 3.66974 8.13934 3.66974Z" fill="#EEEEEE"/>
<path d="M8.13935 9.09586C6.88013 9.09586 5.6725 9.59608 4.7821 10.4865C3.8917 11.3769 3.39148 12.5845 3.39148 13.8437C3.39148 14.0236 3.46294 14.1961 3.59014 14.3233C3.71734 14.4505 3.88986 14.522 4.06975 14.522C4.24963 14.522 4.42215 14.4505 4.54935 14.3233C4.67655 14.1961 4.74801 14.0236 4.74801 13.8437C4.74801 12.9443 5.10531 12.0817 5.74131 11.4457C6.37731 10.8097 7.23991 10.4524 8.13935 10.4524C9.03878 10.4524 9.90138 10.8097 10.5374 11.4457C11.1734 12.0817 11.5307 12.9443 11.5307 13.8437C11.5307 14.0236 11.6021 14.1961 11.7293 14.3233C11.8565 14.4505 12.0291 14.522 12.2089 14.522C12.3888 14.522 12.5614 14.4505 12.6886 14.3233C12.8158 14.1961 12.8872 14.0236 12.8872 13.8437C12.8872 12.5845 12.387 11.3769 11.4966 10.4865C10.6062 9.59608 9.39856 9.09586 8.13935 9.09586Z" fill="#EEEEEE"/>
</svg>
