<svg width="16" height="16" viewBox="0 0 16 16" fill="none" xmlns="http://www.w3.org/2000/svg">
<path d="M11.94 3.33332H3.93998L4.80665 2.47332C4.93218 2.34779 5.00271 2.17753 5.00271 1.99999C5.00271 1.82246 4.93218 1.65219 4.80665 1.52666C4.68111 1.40112 4.51085 1.3306 4.33331 1.3306C4.15578 1.3306 3.98552 1.40112 3.85998 1.52666L1.85998 3.52666C1.79749 3.58863 1.7479 3.66237 1.71405 3.74361C1.68021 3.82485 1.66278 3.91198 1.66278 3.99999C1.66278 4.088 1.68021 4.17514 1.71405 4.25638C1.7479 4.33762 1.79749 4.41135 1.85998 4.47332L3.85998 6.47332C3.92196 6.53581 3.99569 6.58541 4.07693 6.61925C4.15817 6.6531 4.24531 6.67052 4.33331 6.67052C4.42132 6.67052 4.50846 6.6531 4.5897 6.61925C4.67094 6.58541 4.74467 6.53581 4.80665 6.47332C4.86913 6.41135 4.91873 6.33762 4.95257 6.25638C4.98642 6.17514 5.00385 6.088 5.00385 5.99999C5.00385 5.91198 4.98642 5.82485 4.95257 5.74361C4.91873 5.66237 4.86913 5.58863 4.80665 5.52666L3.93998 4.66666H11.94C12.0766 4.66401 12.2123 4.68829 12.3395 4.73812C12.4667 4.78795 12.5828 4.86235 12.6813 4.95707C12.7797 5.05179 12.8585 5.16497 12.9132 5.29016C12.9679 5.41534 12.9974 5.55008 13 5.68666V7.33332C13 7.51014 13.0702 7.6797 13.1952 7.80473C13.3203 7.92975 13.4898 7.99999 13.6666 7.99999C13.8435 7.99999 14.013 7.92975 14.1381 7.80473C14.2631 7.6797 14.3333 7.51014 14.3333 7.33332V5.68666C14.3307 5.37498 14.2667 5.06688 14.145 4.77993C14.0233 4.49299 13.8463 4.23282 13.6241 4.01429C13.4018 3.79576 13.1387 3.62315 12.8498 3.50631C12.5608 3.38947 12.2517 3.33069 11.94 3.33332Z" fill="#888888"/>
<path d="M12.14 9.52667C12.0145 9.40113 11.8442 9.33061 11.6667 9.33061C11.4892 9.33061 11.3189 9.40113 11.1934 9.52667C11.0678 9.6522 10.9973 9.82247 10.9973 10C10.9973 10.1775 11.0678 10.3478 11.1934 10.4733L12.06 11.3333H4.06002C3.92344 11.336 3.78767 11.3117 3.66048 11.2619C3.53328 11.212 3.41715 11.1376 3.31872 11.0429C3.22028 10.9482 3.14147 10.835 3.08679 10.7098C3.03211 10.5846 3.00262 10.4499 3.00002 10.3133V8.66667C3.00002 8.48986 2.92978 8.32029 2.80476 8.19526C2.67973 8.07024 2.51016 8 2.33335 8C2.15654 8 1.98697 8.07024 1.86195 8.19526C1.73692 8.32029 1.66669 8.48986 1.66669 8.66667V10.3133C1.6693 10.625 1.73328 10.9331 1.85498 11.2201C1.97667 11.507 2.15369 11.7672 2.37594 11.9857C2.59818 12.2042 2.86129 12.3768 3.15025 12.4937C3.43921 12.6105 3.74835 12.6693 4.06002 12.6667H12.06L11.1934 13.5267C11.1309 13.5886 11.0813 13.6624 11.0474 13.7436C11.0136 13.8249 10.9962 13.912 10.9962 14C10.9962 14.088 11.0136 14.1751 11.0474 14.2564C11.0813 14.3376 11.1309 14.4114 11.1934 14.4733C11.2553 14.5358 11.3291 14.5854 11.4103 14.6193C11.4915 14.6531 11.5787 14.6705 11.6667 14.6705C11.7547 14.6705 11.8418 14.6531 11.9231 14.6193C12.0043 14.5854 12.078 14.5358 12.14 14.4733L14.14 12.4733C14.2025 12.4114 14.2521 12.3376 14.2859 12.2564C14.3198 12.1751 14.3372 12.088 14.3372 12C14.3372 11.912 14.3198 11.8249 14.2859 11.7436C14.2521 11.6624 14.2025 11.5886 14.14 11.5267L12.14 9.52667Z" fill="#888888"/>
</svg>
