<svg width="17" height="17" viewBox="0 0 17 17" fill="none" xmlns="http://www.w3.org/2000/svg">
<path d="M5.83988 14.9219C5.5089 14.9199 5.18753 14.8104 4.92422 14.6099L3.52021 13.5653C3.19621 13.3127 2.98123 12.9456 2.91942 12.5395C2.85761 12.1333 2.95367 11.7189 3.18786 11.3813C3.31177 11.1984 3.39052 10.9886 3.41764 10.7693C3.44475 10.55 3.41947 10.3274 3.34386 10.1197L3.30316 10.0112C3.25052 9.82328 3.15429 9.6504 3.0223 9.50663C2.89031 9.36285 2.72627 9.25222 2.5435 9.18373H2.43498C2.03879 9.05051 1.71114 8.76637 1.52319 8.39301C1.33525 8.01966 1.30217 7.58723 1.43115 7.18963L1.98733 5.42614C2.03852 5.22182 2.13278 5.03079 2.2638 4.86586C2.39481 4.70092 2.55955 4.56588 2.74698 4.46978C2.92154 4.37984 3.11252 4.32626 3.30838 4.31227C3.50425 4.29828 3.70091 4.32417 3.88647 4.38839C4.08852 4.45639 4.30411 4.47401 4.51452 4.43973C4.72492 4.40545 4.92378 4.32031 5.09379 4.19169L5.18196 4.12386C5.33586 4.00107 5.46024 3.8453 5.54593 3.66805C5.63162 3.49079 5.67645 3.29656 5.6771 3.09968V2.9369C5.67527 2.52189 5.83747 2.12296 6.12838 1.82697C6.41929 1.53098 6.81535 1.3619 7.23033 1.35654H8.95991C9.16181 1.35708 9.36162 1.39751 9.54786 1.47549C9.73409 1.55348 9.90309 1.66749 10.0451 1.81098C10.3438 2.1147 10.5097 2.52453 10.5064 2.95046V3.14038C10.5029 3.32741 10.5435 3.51264 10.6248 3.68111C10.7061 3.84959 10.8258 3.9966 10.9744 4.1103L11.049 4.16456C11.2012 4.27871 11.3788 4.35437 11.5666 4.38507C11.7543 4.41578 11.9468 4.40063 12.1274 4.34091L12.358 4.2663C12.5534 4.20153 12.7598 4.17678 12.965 4.19352C13.1702 4.21026 13.3698 4.26815 13.5521 4.36373C13.7344 4.45931 13.8956 4.59063 14.0261 4.74985C14.1565 4.90908 14.2536 5.09294 14.3114 5.29048L14.8473 6.99972C14.9713 7.39473 14.9374 7.82242 14.7527 8.19299C14.5681 8.56355 14.247 8.84815 13.857 8.98704L13.7213 9.03452C13.5218 9.09985 13.3414 9.21318 13.1959 9.36456C13.0505 9.51594 12.9444 9.70073 12.8871 9.9027C12.8331 10.0904 12.8203 10.2876 12.8496 10.4808C12.8788 10.674 12.9495 10.8585 13.0566 11.0218L13.233 11.2796C13.4669 11.619 13.562 12.0351 13.499 12.4424C13.4359 12.8497 13.2194 13.2175 12.8939 13.4704L11.5305 14.5217C11.3658 14.6477 11.1771 14.7386 10.9759 14.7888C10.7748 14.8391 10.5654 14.8477 10.3608 14.814C10.1562 14.7803 9.9607 14.7051 9.78626 14.593C9.61182 14.4809 9.46217 14.3343 9.34652 14.1622L9.26513 14.0469C9.15404 13.88 9.00247 13.7439 8.82456 13.6514C8.64664 13.5589 8.4482 13.5129 8.24773 13.5179C8.05644 13.5228 7.869 13.5727 7.70052 13.6634C7.53204 13.7541 7.38724 13.8832 7.27781 14.0401L7.12181 14.264C7.00612 14.4373 6.85617 14.5851 6.68119 14.6982C6.50622 14.8114 6.30992 14.8875 6.10441 14.9219C6.01644 14.9305 5.92785 14.9305 5.83988 14.9219ZM2.98438 7.88146C3.36739 8.01804 3.71299 8.24262 3.99337 8.53713C4.27374 8.83165 4.48107 9.18787 4.59865 9.57713V9.65852C4.74511 10.0632 4.7932 10.4969 4.73895 10.9238C4.6847 11.3508 4.52967 11.7587 4.28665 12.1138C4.24375 12.1612 4.22 12.2229 4.22 12.2868C4.22 12.3507 4.24375 12.4124 4.28665 12.4598L5.74492 13.5653C5.76395 13.5803 5.78595 13.591 5.80946 13.5967C5.83296 13.6025 5.85742 13.6031 5.88119 13.5986C5.90496 13.5941 5.92749 13.5846 5.94727 13.5706C5.96706 13.5567 5.98363 13.5387 5.99588 13.5179L6.15188 13.294C6.38717 12.9541 6.70138 12.6762 7.06758 12.4843C7.43379 12.2924 7.84107 12.1921 8.25451 12.1921C8.66796 12.1921 9.07523 12.2924 9.44144 12.4843C9.80764 12.6762 10.1219 12.9541 10.3571 13.294L10.4385 13.4161C10.4677 13.4575 10.5112 13.4865 10.5606 13.4975C10.5833 13.5009 10.6064 13.4996 10.6285 13.4937C10.6507 13.4879 10.6714 13.4777 10.6895 13.4636L12.0867 12.4055C12.1356 12.3667 12.1678 12.3106 12.1766 12.2488C12.1855 12.187 12.1703 12.1241 12.1342 12.0732L11.9578 11.8154C11.7281 11.4803 11.5765 11.098 11.5142 10.6965C11.452 10.295 11.4808 9.88463 11.5984 9.49574C11.7176 9.08699 11.9332 8.71286 12.2271 8.40479C12.521 8.09673 12.8846 7.86375 13.2873 7.72546L13.4229 7.67798C13.4794 7.65534 13.5247 7.61124 13.5489 7.55533C13.573 7.49942 13.5741 7.43623 13.5518 7.37955L13.0227 5.69066C13.01 5.66111 12.9915 5.63445 12.9681 5.6123C12.9448 5.59014 12.9172 5.57296 12.8871 5.56179C12.8671 5.55166 12.845 5.54638 12.8226 5.54638C12.8002 5.54638 12.7782 5.55166 12.7582 5.56179L12.5276 5.6364C12.1375 5.76515 11.7219 5.79723 11.3167 5.72989C10.9115 5.66254 10.5286 5.49779 10.2011 5.24979L10.174 5.18874C9.85975 4.95075 9.60494 4.64315 9.42959 4.2901C9.25424 3.93704 9.16312 3.54815 9.16339 3.15394V2.94368C9.16462 2.87831 9.14028 2.81503 9.09556 2.76733C9.05654 2.73207 9.00572 2.71271 8.95313 2.71307H7.23033C7.2027 2.7148 7.17568 2.72196 7.15082 2.73415C7.12597 2.74635 7.10376 2.76333 7.08549 2.78413C7.06721 2.80492 7.05322 2.82912 7.04432 2.85534C7.03542 2.88156 7.03179 2.90927 7.03363 2.9369V3.10646C7.03367 3.51142 6.94074 3.91097 6.762 4.27434C6.58325 4.63771 6.32347 4.95519 6.00267 5.20231L5.91449 5.27014C5.56839 5.53365 5.16279 5.70798 4.73342 5.77776C4.30406 5.84755 3.86412 5.81065 3.45238 5.67031C3.42157 5.65997 3.38823 5.65997 3.35742 5.67031C3.31915 5.69357 3.29032 5.7296 3.27603 5.77205L2.71307 7.54233C2.69345 7.60262 2.69805 7.66818 2.72589 7.72515C2.75374 7.78211 2.80266 7.826 2.86229 7.84755L2.98438 7.88146Z" fill="#EEEEEE"/>
<path d="M8.13919 10.5131C7.66967 10.5131 7.2107 10.3739 6.82031 10.113C6.42992 9.8522 6.12564 9.48144 5.94596 9.04766C5.76629 8.61388 5.71928 8.13656 5.81087 7.67606C5.90247 7.21556 6.12857 6.79257 6.46057 6.46057C6.79257 6.12857 7.21556 5.90247 7.67606 5.81087C8.13656 5.71928 8.61388 5.76629 9.04766 5.94596C9.48144 6.12564 9.8522 6.42992 10.113 6.82031C10.3739 7.2107 10.5131 7.66967 10.5131 8.13919C10.5131 8.7688 10.263 9.37262 9.81782 9.81782C9.37262 10.263 8.7688 10.5131 8.13919 10.5131ZM8.13919 7.12179C7.93797 7.12179 7.74127 7.18146 7.57396 7.29326C7.40665 7.40505 7.27624 7.56395 7.19924 7.74985C7.12223 7.93576 7.10209 8.14032 7.14134 8.33768C7.1806 8.53504 7.2775 8.71632 7.41978 8.8586C7.56207 9.00089 7.74335 9.09779 7.94071 9.13704C8.13806 9.1763 8.34263 9.15615 8.52854 9.07915C8.71444 9.00214 8.87334 8.87174 8.98513 8.70443C9.09692 8.53712 9.15659 8.34042 9.15659 8.13919C9.15659 7.86936 9.0494 7.61058 8.8586 7.41978C8.6678 7.22898 8.40902 7.12179 8.13919 7.12179Z" fill="#EEEEEE"/>
</svg>
