<svg width="16" height="16" viewBox="0 0 16 16" fill="none" xmlns="http://www.w3.org/2000/svg">
<path d="M12.4733 9.52667C12.3478 9.40113 12.1775 9.33061 12 9.33061C11.8225 9.33061 11.6522 9.40113 11.5267 9.52667C11.4011 9.6522 11.3306 9.82247 11.3306 10C11.3306 10.1775 11.4011 10.3478 11.5267 10.4733L11.72 10.6667H10.6667C9.95942 10.6667 9.28115 10.3857 8.78105 9.88562C8.28095 9.38552 8 8.70725 8 8C8 7.29276 8.28095 6.61448 8.78105 6.11438C9.28115 5.61429 9.95942 5.33334 10.6667 5.33334H11.7267L11.5267 5.52667C11.4642 5.58864 11.4146 5.66238 11.3807 5.74362C11.3469 5.82486 11.3295 5.91199 11.3295 6C11.3295 6.08801 11.3469 6.17515 11.3807 6.25639C11.4146 6.33763 11.4642 6.41136 11.5267 6.47334C11.589 6.53512 11.6628 6.58401 11.7441 6.61718C11.8253 6.65036 11.9123 6.66718 12 6.66667C12.0877 6.66718 12.1747 6.65036 12.2559 6.61718C12.3372 6.58401 12.411 6.53512 12.4733 6.47334L13.8067 5.14C13.8685 5.07771 13.9173 5.00383 13.9505 4.92261C13.9837 4.84138 14.0005 4.75441 14 4.66667C14.0005 4.57893 13.9837 4.49196 13.9505 4.41073C13.9173 4.32951 13.8685 4.25563 13.8067 4.19333L12.4733 2.86C12.4112 2.79784 12.3374 2.74854 12.2562 2.7149C12.175 2.68126 12.0879 2.66394 12 2.66394C11.8225 2.66394 11.6522 2.73447 11.5267 2.86C11.4011 2.98554 11.3306 3.1558 11.3306 3.33333C11.3306 3.51087 11.4011 3.68113 11.5267 3.80667L11.72 4H10.6667C10.0062 4.00048 9.3561 4.16451 8.77445 4.47744C8.19281 4.79036 7.6977 5.24245 7.33333 5.79333C6.96897 5.24245 6.47386 4.79036 5.89221 4.47744C5.31057 4.16451 4.66048 4.00048 4 4H2.66667C2.48986 4 2.32029 4.07024 2.19526 4.19526C2.07024 4.32029 2 4.48986 2 4.66667C2 4.84348 2.07024 5.01305 2.19526 5.13807C2.32029 5.2631 2.48986 5.33334 2.66667 5.33334H4C4.70724 5.33334 5.38552 5.61429 5.88562 6.11438C6.38572 6.61448 6.66667 7.29276 6.66667 8C6.66667 8.70725 6.38572 9.38552 5.88562 9.88562C5.38552 10.3857 4.70724 10.6667 4 10.6667H2.66667C2.48986 10.6667 2.32029 10.7369 2.19526 10.8619C2.07024 10.987 2 11.1565 2 11.3333C2 11.5101 2.07024 11.6797 2.19526 11.8047C2.32029 11.9298 2.48986 12 2.66667 12H4C4.66048 11.9995 5.31057 11.8355 5.89221 11.5226C6.47386 11.2096 6.96897 10.7576 7.33333 10.2067C7.6977 10.7576 8.19281 11.2096 8.77445 11.5226C9.3561 11.8355 10.0062 11.9995 10.6667 12H11.7267L11.5267 12.1933C11.4642 12.2553 11.4146 12.329 11.3807 12.4103C11.3469 12.4915 11.3295 12.5787 11.3295 12.6667C11.3295 12.7547 11.3469 12.8418 11.3807 12.9231C11.4146 13.0043 11.4642 13.078 11.5267 13.14C11.589 13.2018 11.6628 13.2507 11.7441 13.2838C11.8253 13.317 11.9123 13.3338 12 13.3333C12.0877 13.3338 12.1747 13.317 12.2559 13.2838C12.3372 13.2507 12.411 13.2018 12.4733 13.14L13.8067 11.8067C13.8685 11.7444 13.9173 11.6705 13.9505 11.5893C13.9837 11.508 14.0005 11.4211 14 11.3333C14.0005 11.2456 13.9837 11.1586 13.9505 11.0774C13.9173 10.9962 13.8685 10.9223 13.8067 10.86L12.4733 9.52667Z" fill="#888888"/>
</svg>
