<svg width="17" height="17" viewBox="0 0 17 17" fill="none" xmlns="http://www.w3.org/2000/svg">
<path d="M14.2436 4.06961H13.5654V3.39134C13.5654 3.21145 13.4939 3.03893 13.3667 2.91173C13.2395 2.78453 13.067 2.71307 12.8871 2.71307C12.7072 2.71307 12.5347 2.78453 12.4075 2.91173C12.2803 3.03893 12.2088 3.21145 12.2088 3.39134V4.06961H11.5306C11.3507 4.06961 11.1782 4.14107 11.051 4.26827C10.9238 4.39547 10.8523 4.56799 10.8523 4.74787C10.8523 4.92776 10.9238 5.10028 11.051 5.22748C11.1782 5.35468 11.3507 5.42614 11.5306 5.42614H12.2088V6.10441C12.2088 6.28429 12.2803 6.45681 12.4075 6.58401C12.5347 6.71121 12.7072 6.78267 12.8871 6.78267C13.067 6.78267 13.2395 6.71121 13.3667 6.58401C13.4939 6.45681 13.5654 6.28429 13.5654 6.10441V5.42614H14.2436C14.4235 5.42614 14.596 5.35468 14.7232 5.22748C14.8504 5.10028 14.9219 4.92776 14.9219 4.74787C14.9219 4.56799 14.8504 4.39547 14.7232 4.26827C14.596 4.14107 14.4235 4.06961 14.2436 4.06961Z" fill="#EEEEEE"/>
<path d="M6.78265 7.46092C7.31924 7.46092 7.84378 7.30181 8.28995 7.00369C8.73611 6.70557 9.08385 6.28185 9.28919 5.7861C9.49454 5.29036 9.54827 4.74485 9.44358 4.21856C9.3389 3.69228 9.0805 3.20886 8.70107 2.82943C8.32165 2.45 7.83822 2.19161 7.31194 2.08692C6.78566 1.98224 6.24015 2.03597 5.7444 2.24131C5.24865 2.44666 4.82493 2.7944 4.52681 3.24056C4.2287 3.68672 4.06958 4.21126 4.06958 4.74786C4.06958 5.46741 4.35542 6.15749 4.86422 6.66629C5.37302 7.17508 6.0631 7.46092 6.78265 7.46092ZM6.78265 3.39132C7.05094 3.39132 7.31322 3.47088 7.5363 3.61994C7.75938 3.769 7.93325 3.98086 8.03592 4.22874C8.13859 4.47661 8.16546 4.74936 8.11312 5.0125C8.06077 5.27565 7.93158 5.51736 7.74186 5.70707C7.55215 5.89679 7.31044 6.02598 7.04729 6.07833C6.78415 6.13067 6.5114 6.1038 6.26352 6.00113C6.01565 5.89846 5.80379 5.72459 5.65473 5.50151C5.50567 5.27843 5.42611 5.01616 5.42611 4.74786C5.42611 4.38808 5.56903 4.04304 5.82343 3.78864C6.07783 3.53424 6.42287 3.39132 6.78265 3.39132Z" fill="#EEEEEE"/>
<path d="M6.78266 8.81744C5.52344 8.81744 4.31581 9.31766 3.42541 10.2081C2.53501 11.0985 2.03479 12.3061 2.03479 13.5653C2.03479 13.7452 2.10625 13.9177 2.23345 14.0449C2.36065 14.1721 2.53317 14.2436 2.71306 14.2436C2.89294 14.2436 3.06546 14.1721 3.19266 14.0449C3.31986 13.9177 3.39132 13.7452 3.39132 13.5653C3.39132 12.6659 3.74862 11.8033 4.38462 11.1673C5.02062 10.5313 5.88322 10.174 6.78266 10.174C7.68209 10.174 8.54469 10.5313 9.18069 11.1673C9.81669 11.8033 10.174 12.6659 10.174 13.5653C10.174 13.7452 10.2455 13.9177 10.3727 14.0449C10.4999 14.1721 10.6724 14.2436 10.8523 14.2436C11.0321 14.2436 11.2047 14.1721 11.3319 14.0449C11.4591 13.9177 11.5305 13.7452 11.5305 13.5653C11.5305 12.3061 11.0303 11.0985 10.1399 10.2081C9.24951 9.31766 8.04187 8.81744 6.78266 8.81744Z" fill="#EEEEEE"/>
</svg>
